<svg width="50" height="48" viewBox="0 0 50 48" fill="none" xmlns="http://www.w3.org/2000/svg">
<path fill-rule="evenodd" clip-rule="evenodd" d="M25.2871 11.3421C23.4347 10.7551 21.4621 10.4384 19.4154 10.4384C8.69259 10.4384 0 19.131 0 29.8539C0 37.5594 4.48881 44.2165 10.9941 47.3529L25.2871 11.3421Z" fill="#4DB5E6"/>
<path fill-rule="evenodd" clip-rule="evenodd" d="M18.2331 36.5782C20.1439 37.1228 22.172 37.3944 24.2687 37.3478C35.2545 37.1034 43.9669 28.2149 43.7284 17.4947C43.557 9.79109 38.8102 3.23795 32.0756 0.250578L18.2331 36.5782Z" fill="#44AFAF"/>
<path d="M41.5449 10.1252L43.4432 15.9676H49.5862L44.6164 19.5783L46.5147 25.4207L41.5449 21.8099L36.5751 25.4207L38.4734 19.5783L33.5036 15.9676H39.6466L41.5449 10.1252Z" fill="#44AFAF"/>
</svg>
