<svg width="194" height="82" viewBox="0 0 194 82" fill="none" xmlns="http://www.w3.org/2000/svg">
<path d="M78 19.7943C73.4133 12.3903 66.5433 6.59122 58.373 3.22706C50.2028 -0.137106 41.1511 -0.893985 32.5132 1.06472C23.8753 3.02344 16.0938 7.59735 10.2823 14.132C4.47082 20.6666 0.927111 28.827 0.158281 37.4455C-0.61055 46.064 1.4349 54.6989 6.00194 62.1146C10.569 69.5302 17.4236 75.3466 25.5848 78.7315C33.746 82.1163 42.7957 82.8961 51.4388 80.9592C60.0819 79.0224 67.8755 74.4682 73.7043 67.9483L19.2133 48.9444L40.1738 42.7358L19.2133 37.4455L78 19.7943Z" fill="#52C4C0"/>
<path d="M55.376 31.94H60.29L60.263 33.371C61.037 32.903 61.829 32.552 62.639 32.318C63.449 32.066 64.25 31.94 65.042 31.94C67.076 31.94 68.561 32.336 69.497 33.128C70.451 33.902 70.928 34.874 70.928 36.044C70.928 36.152 70.919 36.26 70.901 36.368C70.901 36.476 70.892 36.584 70.874 36.692C70.766 37.556 70.307 38.42 69.497 39.284C68.687 40.148 67.409 40.949 65.663 41.687C67.031 41.759 68.183 42.038 69.119 42.524C70.055 43.01 70.766 43.577 71.252 44.225C71.738 44.873 71.981 45.494 71.981 46.088C71.981 47.582 71.36 48.878 70.118 49.976C68.894 51.056 67.121 51.893 64.799 52.487C62.477 53.063 59.669 53.351 56.375 53.351L55.376 31.94ZM60.074 42.632C61.64 41.894 62.891 41.147 63.827 40.391C64.781 39.635 65.474 38.942 65.906 38.312C66.356 37.664 66.608 37.169 66.662 36.827C66.68 36.755 66.689 36.692 66.689 36.638C66.689 36.566 66.689 36.494 66.689 36.422C66.689 35.81 66.491 35.252 66.095 34.748C65.699 34.226 65.159 33.965 64.475 33.965C63.701 33.965 62.981 34.01 62.315 34.1C61.649 34.172 60.956 34.316 60.236 34.532L60.074 42.632ZM59.858 52.082C61.37 51.74 62.603 51.344 63.557 50.894C64.529 50.426 65.276 49.931 65.798 49.409C66.338 48.887 66.716 48.356 66.932 47.816C67.148 47.258 67.256 46.709 67.256 46.169C67.256 45.863 67.157 45.566 66.959 45.278C66.761 44.972 66.401 44.693 65.879 44.441C65.357 44.171 64.619 43.955 63.665 43.793C62.729 43.613 61.523 43.514 60.047 43.496L59.858 52.082ZM76.4989 53.621L74.3389 48.086L80.8999 49.22L76.4989 53.621ZM89.2085 43.712L89.0195 53H85.5635L84.5645 31.94H89.4785L89.4245 33.965L98.6585 31.67V36.044L89.3975 35.099L89.2355 42.632L97.4435 40.634V44.927L89.2085 43.712ZM101.049 31.562L107.61 32.696L103.209 37.124L101.049 31.562ZM102.21 53L101.508 37.961H106.26L105.558 53H102.21ZM120.526 53L120.094 43.739C120.04 42.551 119.878 41.768 119.608 41.39C119.356 40.994 118.951 40.796 118.393 40.796C117.961 40.796 117.358 40.913 116.584 41.147C115.81 41.363 115.054 41.705 114.316 42.173L113.803 53H110.482L109.78 37.961H114.505L114.37 40.823C114.928 40.193 115.567 39.635 116.287 39.149C117.025 38.663 117.79 38.285 118.582 38.015C119.374 37.745 120.13 37.61 120.85 37.61C122.2 37.61 123.118 37.979 123.604 38.717C124.09 39.437 124.333 40.49 124.333 41.876C124.333 42.002 124.324 42.128 124.306 42.254C124.306 42.362 124.306 42.488 124.306 42.632L123.874 53H120.526ZM143.067 50.84C142.239 51.614 141.51 52.226 140.88 52.676C140.25 53.126 139.683 53.351 139.179 53.351C138.783 53.351 138.423 53.198 138.099 52.892C137.793 52.568 137.505 52.055 137.235 51.353C136.677 51.839 135.993 52.253 135.183 52.595C134.373 52.919 133.5 53.135 132.564 53.243C132.276 53.279 131.997 53.306 131.727 53.324C131.457 53.342 131.196 53.351 130.944 53.351C128.406 53.351 127.137 52.442 127.137 50.624C127.137 50.408 127.155 50.183 127.191 49.949C127.227 49.715 127.281 49.463 127.353 49.193C127.515 48.599 127.839 48.068 128.325 47.6C128.829 47.114 129.432 46.682 130.134 46.304C130.836 45.908 131.556 45.548 132.294 45.224C133.032 44.882 133.716 44.567 134.346 44.279C134.994 43.973 135.516 43.676 135.912 43.388C136.326 43.1 136.533 42.812 136.533 42.524C136.533 41.732 136.434 41.201 136.236 40.931C136.038 40.643 135.66 40.499 135.102 40.499C134.706 40.499 134.094 40.535 133.266 40.607C132.438 40.679 131.529 40.787 130.539 40.931C129.549 41.075 128.604 41.264 127.704 41.498L127.569 41.228C128.055 40.76 128.676 40.31 129.432 39.878C130.206 39.446 131.025 39.059 131.889 38.717C132.771 38.375 133.644 38.105 134.508 37.907C135.372 37.709 136.155 37.61 136.857 37.61C137.973 37.61 138.801 37.727 139.341 37.961C139.899 38.177 140.268 38.618 140.448 39.284C140.646 39.932 140.745 40.913 140.745 42.227V49.058C140.745 49.706 140.799 50.174 140.907 50.462C141.033 50.732 141.312 50.867 141.744 50.867C141.888 50.867 142.059 50.849 142.257 50.813C142.473 50.777 142.707 50.732 142.959 50.678L143.067 50.84ZM136.749 44.873C136.353 45.215 135.822 45.584 135.156 45.98C134.508 46.358 133.878 46.772 133.266 47.222C132.654 47.654 132.204 48.14 131.916 48.68C131.664 49.184 131.538 49.625 131.538 50.003C131.538 50.363 131.646 50.66 131.862 50.894C132.096 51.128 132.42 51.245 132.834 51.245C132.924 51.245 133.014 51.245 133.104 51.245C133.212 51.227 133.311 51.209 133.401 51.191C133.761 51.101 134.175 50.975 134.643 50.813C135.129 50.651 135.579 50.462 135.993 50.246C136.425 50.03 136.731 49.814 136.911 49.598L136.749 44.873ZM155.252 53L154.82 43.739C154.766 42.551 154.604 41.768 154.334 41.39C154.082 40.994 153.677 40.796 153.119 40.796C152.687 40.796 152.084 40.913 151.31 41.147C150.536 41.363 149.78 41.705 149.042 42.173L148.529 53H145.208L144.506 37.961H149.231L149.096 40.823C149.654 40.193 150.293 39.635 151.013 39.149C151.751 38.663 152.516 38.285 153.308 38.015C154.1 37.745 154.856 37.61 155.576 37.61C156.926 37.61 157.844 37.979 158.33 38.717C158.816 39.437 159.059 40.49 159.059 41.876C159.059 42.002 159.05 42.128 159.032 42.254C159.032 42.362 159.032 42.488 159.032 42.632L158.6 53H155.252ZM176.443 53.351C173.671 53.351 171.358 53.225 169.504 52.973C167.65 52.721 166.183 52.307 165.103 51.731C164.023 51.155 163.249 50.399 162.781 49.463C162.313 48.527 162.079 47.384 162.079 46.034C162.079 44.288 162.358 42.785 162.916 41.525C163.474 40.265 164.23 39.302 165.184 38.636C166.156 37.952 167.245 37.61 168.451 37.61C170.089 37.61 171.565 37.79 172.879 38.15C174.211 38.492 175.318 38.915 176.2 39.419L174.472 43.01C173.374 41.912 172.393 41.066 171.529 40.472C170.665 39.86 169.783 39.554 168.883 39.554C168.361 39.554 167.884 39.77 167.452 40.202C167.02 40.616 166.678 41.309 166.426 42.281C166.192 43.253 166.075 44.576 166.075 46.25C166.075 47.456 166.426 48.464 167.128 49.274C167.83 50.084 168.946 50.786 170.476 51.38C172.024 51.956 174.049 52.514 176.551 53.054L176.443 53.351ZM192.158 53.351C189.386 53.351 187.073 53.225 185.219 52.973C183.365 52.721 181.898 52.307 180.818 51.731C179.738 51.155 178.964 50.399 178.496 49.463C178.028 48.527 177.794 47.384 177.794 46.034C177.794 44.288 178.118 42.785 178.766 41.525C179.414 40.265 180.26 39.302 181.304 38.636C182.366 37.952 183.482 37.61 184.652 37.61C185.588 37.61 186.533 37.754 187.487 38.042C188.441 38.33 189.332 38.798 190.16 39.446C190.988 40.094 191.663 40.949 192.185 42.011C192.707 43.055 193.004 44.342 193.076 45.872L181.601 47.168C181.763 48.158 182.213 49.004 182.951 49.706C183.707 50.39 184.841 50.993 186.353 51.515C187.865 52.037 189.836 52.541 192.266 53.027L192.158 53.351ZM188.567 43.658C188.477 42.956 188.27 42.29 187.946 41.66C187.622 41.03 187.208 40.526 186.704 40.148C186.2 39.752 185.642 39.554 185.03 39.554C184.31 39.554 183.689 39.725 183.167 40.067C182.645 40.409 182.24 41.066 181.952 42.038C181.664 42.992 181.52 44.396 181.52 46.25C181.52 46.34 181.52 46.43 181.52 46.52C181.52 46.592 181.529 46.673 181.547 46.763L188.567 43.658Z" fill="black"/>
</svg>
