<svg width="162" height="48" viewBox="0 0 162 48" fill="none" xmlns="http://www.w3.org/2000/svg">
<path fill-rule="evenodd" clip-rule="evenodd" d="M27.2871 11.3421C25.4347 10.7551 23.4621 10.4384 21.4154 10.4384C10.6926 10.4384 2 19.131 2 29.8539C2 37.5594 6.48881 44.2165 12.9941 47.3529L27.2871 11.3421Z" fill="#4DB5E6"/>
<path fill-rule="evenodd" clip-rule="evenodd" d="M20.2331 36.5781C22.1439 37.1228 24.172 37.3944 26.2687 37.3478C37.2545 37.1034 45.9669 28.2149 45.7284 17.4947C45.557 9.79106 40.8102 3.23792 34.0756 0.250548L20.2331 36.5781Z" fill="#44AFAF"/>
<path opacity="0.34" d="M15.873 34.8831H3.95606C3.80402 34.8831 3.68085 34.7663 3.68085 34.6221C3.68085 34.478 3.80402 34.3612 3.95606 34.3612H15.873C16.0251 34.3612 16.1482 34.478 16.1482 34.6221C16.1482 34.7663 16.0251 34.8831 15.873 34.8831Z" fill="black"/>
<path d="M16.7001 31.6679H14.2975C14.0532 31.6679 13.8548 31.4924 13.8548 31.2763C13.8548 31.0603 14.0532 30.8847 14.2975 30.8847H15.6391C15.9291 30.8847 16.1639 30.6771 16.1639 30.4206C16.1639 30.164 15.9291 29.9564 15.6391 29.9564H14.4464C14.12 29.9564 13.8548 29.7218 13.8548 29.4332C13.8548 29.1445 14.12 28.9099 14.4464 28.9099H15.7727C16.0627 28.9099 16.2994 28.7006 16.2994 28.4441C16.2994 28.1875 16.0627 27.9782 15.7727 27.9782H13.8567H13.3987C13.1086 27.9782 12.872 27.7689 12.872 27.5124C12.872 27.2558 13.1086 27.0465 13.3987 27.0465H13.9177C14.2078 27.0465 14.4444 26.8372 14.4444 26.5807C14.4444 26.3241 14.2078 26.1148 13.9177 26.1148H13.6219H13.5723H10.4369H10.33H7.05529H6.30531C6.01524 26.1148 5.7786 26.3241 5.7786 26.5807C5.7786 26.8372 6.01524 27.0465 6.30531 27.0465H6.52859C6.81866 27.0465 7.05529 27.2558 7.05529 27.5124C7.05529 27.7689 6.81866 27.9782 6.52859 27.9782H4.51909C4.29581 27.9782 4.11451 28.1386 4.11451 28.336C4.11451 28.5335 4.29581 28.6939 4.51909 28.6939H6.63545C6.86827 28.6939 7.0572 28.861 7.0572 29.0669C7.0572 29.2728 6.86827 29.4399 6.63545 29.4399H3.25766C2.96759 29.4399 2.73096 29.6492 2.73096 29.9058C2.73096 30.1623 2.96759 30.3716 3.25766 30.3716H6.52859C6.81866 30.3716 7.05529 30.5809 7.05529 30.8375C7.05529 31.094 6.81866 31.3033 6.52859 31.3033H4.55344C4.0878 31.3033 3.70994 31.6375 3.70994 32.0494C3.70994 32.4612 4.0878 32.7954 4.55344 32.7954H7.05529H8.16595H8.78999H13.8567H16.7001C17.0513 32.7954 17.3356 32.5439 17.3356 32.2333C17.3356 31.9194 17.0513 31.6679 16.7001 31.6679Z" fill="#65706C"/>
<path d="M12.2299 34.5699H12.5853V29.977H12.2299V34.5699Z" fill="#2F262D"/>
<path d="M10.9463 30.909C10.8882 30.8004 10.9463 30.6718 11.0785 30.6217C11.1126 30.61 11.1486 30.6034 11.1847 30.6034C11.2868 30.6034 11.381 30.6535 11.423 30.732L12.7049 33.1403L12.2282 33.3174L10.9463 30.909Z" fill="#FC9F6F"/>
<path d="M8.90527 34.5699H9.26061V29.977H8.90527V34.5699Z" fill="#2F262D"/>
<path d="M10.5254 30.3057C9.32669 30.3057 8.35649 29.4996 8.35649 28.5074C8.35649 28.2512 8.42233 28.007 8.53852 27.785C7.77553 28.0633 7.24298 28.6969 7.24298 29.4313C7.24298 30.4253 8.21318 31.2296 9.41189 31.2296C10.3008 31.2296 11.0638 30.7873 11.3988 30.1537C11.1296 30.2511 10.8352 30.3057 10.5254 30.3057Z" fill="#F2F2F2"/>
<path d="M9.32083 30.8121C10.0094 30.8121 10.5676 30.3915 10.5676 29.8727C10.5676 29.3538 10.0094 28.9332 9.32083 28.9332C8.63228 28.9332 8.0741 29.3538 8.0741 29.8727C8.0741 30.3915 8.63228 30.8121 9.32083 30.8121Z" fill="#3B323A"/>
<path d="M7.18108 29.977H4.57396C4.47508 29.977 4.39331 29.9129 4.39331 29.8354V29.7012C4.39331 29.6236 4.47508 29.5595 4.57396 29.5595H7.18108C7.27996 29.5595 7.36173 29.6236 7.36173 29.7012V29.8354C7.36173 29.9129 7.27996 29.977 7.18108 29.977Z" fill="#AFAFAF"/>
<path d="M10.3656 29.0717C10.005 29.0717 9.71212 28.8224 9.71212 28.5157V27.9597C9.71212 27.7472 9.51121 27.5762 9.26147 27.5762V28.5157C9.26147 29.0349 9.75531 29.4551 10.3656 29.4551H11.28V29.0717H10.3656Z" fill="#EF9067"/>
<path d="M10.5619 26.0128C10.4911 26.8028 9.70368 27.6777 8.96749 27.5666C8.2628 27.4607 7.77857 26.4798 8.01675 25.7924C8.16438 25.3688 8.56987 25.1031 8.89663 24.8896C9.2352 24.6674 9.46354 24.5181 9.72337 24.5546C10.2391 24.624 10.619 25.3844 10.5619 26.0128Z" fill="#603936"/>
<path d="M9.52235 28.2146C9.50872 28.201 9.39973 28.0908 9.38027 28.0755C9.32967 27.894 9.22652 27.6938 9.24792 27.4598C9.10196 27.3665 8.86062 27.2477 8.5862 27.2647C8.50446 27.2698 8.41882 27.2867 8.376 27.2952C8.13856 27.3427 7.9887 27.4191 7.94004 27.4445C7.87387 27.4801 7.84078 27.4971 7.80186 27.531C7.69676 27.626 7.67146 27.7413 7.65784 27.8092C7.54106 28.3995 7.63254 28.966 7.64421 29.0152C7.66562 29.1051 7.69482 29.1848 7.69482 29.1848C7.74347 29.3188 7.80186 29.4019 7.81743 29.4393C7.89528 29.6225 8.07239 30.0075 8.25923 30.301C8.39547 30.3196 8.70492 30.4383 8.90928 30.3773C9.22068 30.284 9.86294 30.0754 10.0926 30.0329C9.8065 29.7531 9.54375 29.441 9.47564 29.061C9.45812 28.9626 9.44255 28.8659 9.43087 28.7709C9.45812 28.7591 9.62355 28.6861 9.65664 28.5403C9.69167 28.3825 9.54959 28.2417 9.52235 28.2146Z" fill="#F05364"/>
<path d="M8.81887 27.7778C8.97475 27.7442 9.06007 27.6034 9.00945 27.4633C8.95882 27.3231 8.79141 27.2367 8.63553 27.2703C8.47965 27.3038 8.39433 27.4446 8.44495 27.5848C8.49557 27.7249 8.66297 27.8113 8.81887 27.7778Z" fill="#EF9067"/>
<path d="M8.66785 27.1349C8.7725 27.3481 8.94565 27.4219 9.05602 27.4776C9.27103 27.5858 9.67443 27.576 9.67443 27.576C9.68775 27.5006 9.70106 27.435 9.76957 27.3104C9.86851 27.1251 9.95985 27.0808 10.0873 26.9135C10.2776 26.661 10.3728 26.356 10.3119 26.3265C10.2681 26.3036 10.1482 26.4216 10.0702 26.4905C9.84758 26.6873 9.34905 26.9791 8.66785 27.1349Z" fill="#603936"/>
<path d="M8.68353 27.5762H8.60843C8.44391 27.5762 8.31158 27.4599 8.31158 27.3153V26.3236H8.90527V27.3798C8.90527 27.4882 8.80513 27.5762 8.68353 27.5762Z" fill="#EF9067"/>
<path d="M5.10565 34.5699H5.46099V29.977H5.10565V34.5699Z" fill="#2F262D"/>
<path d="M7.12421 34.5699H7.47955V29.977H7.12421V34.5699Z" fill="#494149"/>
<path d="M14.3671 34.5699H14.7225V29.977H14.3671V34.5699Z" fill="#494149"/>
<path opacity="0.71" d="M8.31158 26.3898C8.35093 26.7001 8.58697 26.9568 8.90527 27.0543V26.2192H8.31158V26.3898Z" fill="#D36B46"/>
<path d="M9.26152 27.0543C8.80165 27.0543 8.43036 26.7317 8.43036 26.3322V25.4513C8.43036 25.4136 8.46428 25.3841 8.50763 25.3841H9.68935C9.91174 25.3841 10.0927 25.5413 10.0927 25.7345V26.3322C10.0927 26.7317 9.72139 27.0543 9.26152 27.0543Z" fill="#FC9F6F"/>
<path d="M10.0926 26.1526C10.0823 26.1686 10.0575 26.1792 10.0306 26.1792H9.62928C9.59205 26.1792 9.56102 26.1593 9.56102 26.1353V25.99C9.56102 25.966 9.59205 25.946 9.62928 25.946H10.0306C10.0575 25.946 10.0823 25.9567 10.0926 25.9727V25.9167C10.074 25.9101 10.0533 25.9061 10.0306 25.9061H9.62928C9.55688 25.9061 9.49896 25.9434 9.49896 25.99V26.1353C9.49896 26.1819 9.55688 26.2192 9.62928 26.2192H10.0306C10.0533 26.2192 10.074 26.2152 10.0926 26.2086V26.1526Z" fill="#DD9883"/>
<path d="M9.28192 26.2192H8.88476C8.82949 26.2192 8.7865 26.1856 8.7865 26.1459V25.9794C8.7865 25.9381 8.83154 25.9061 8.88476 25.9061H9.28192C9.33719 25.9061 9.38018 25.9397 9.38018 25.9794V26.1459C9.38018 26.1871 9.33515 26.2192 9.28192 26.2192Z" stroke="#DD9883" stroke-width="3" stroke-miterlimit="10" stroke-linecap="round" stroke-linejoin="round"/>
<path opacity="0.6" d="M8.89971 26.4309V25.4941C8.89971 25.454 8.93054 25.4227 8.96994 25.4227L9.59002 25.2016C9.52322 25.1127 9.6928 25.2782 9.57461 25.2782H8.50059C8.46119 25.2782 8.43036 25.3095 8.43036 25.3496V26.2864C8.43036 26.7112 8.76781 27.0543 9.18577 27.0543C9.19433 27.0543 9.2029 27.0543 9.21317 27.0543C9.02304 26.9132 8.89971 26.6869 8.89971 26.4309Z" fill="#EF9067"/>
<path d="M9.99438 26.2192H9.59723C9.54195 26.2192 9.49896 26.1856 9.49896 26.1459V25.9794C9.49896 25.9381 9.544 25.9061 9.59723 25.9061H9.99438C10.0497 25.9061 10.0926 25.9397 10.0926 25.9794V26.1459C10.0926 26.1871 10.0476 26.2192 9.99438 26.2192Z" stroke="#F6CDF7" stroke-width="3" stroke-miterlimit="10" stroke-linecap="round" stroke-linejoin="round"/>
<path d="M9.44092 26.6367C9.34143 26.6367 9.26147 26.5728 9.26147 26.4947V26.428H9.61682V26.4947C9.61682 26.5728 9.53864 26.6367 9.44092 26.6367Z" fill="#FCFAFA"/>
<path d="M9.02399 26.0105H9.26088" stroke="#161515" stroke-width="3" stroke-miterlimit="10" stroke-linecap="round" stroke-linejoin="round"/>
<path d="M9.73645 26.0105H9.97334" stroke="#161515" stroke-width="3" stroke-miterlimit="10" stroke-linecap="round" stroke-linejoin="round"/>
<path d="M9.28192 26.2192H8.88476C8.82949 26.2192 8.7865 26.1856 8.7865 26.1459V25.9794C8.7865 25.9381 8.83154 25.9061 8.88476 25.9061H9.28192C9.33719 25.9061 9.38018 25.9397 9.38018 25.9794V26.1459C9.38018 26.1871 9.33515 26.2192 9.28192 26.2192Z" stroke="#F6CDF7" stroke-width="3" stroke-miterlimit="10" stroke-linecap="round" stroke-linejoin="round"/>
<path d="M9.56028 24.6125C9.32616 24.3458 8.92756 24.3509 8.85403 24.3441C8.78825 24.3321 8.42641 24.3475 8.16133 24.409C7.54989 24.5526 7.12421 25.0416 7.12421 25.6023V26.3204C7.12421 26.8025 7.52667 27.3872 8.0433 27.5393C8.32967 27.6248 8.647 27.6898 8.72246 27.6795C8.33934 27.0521 8.39159 26.6811 8.49994 26.464C8.75922 25.934 9.51965 25.9528 9.70734 25.363C9.71121 25.3459 9.82924 24.9202 9.56028 24.6125Z" fill="#754743"/>
<path d="M11.9628 29.4551C11.9825 29.4131 11.9924 29.3679 11.9924 29.321C11.9924 29.1061 11.7807 28.9332 11.5175 28.9332C11.2543 28.9332 11.0425 29.1061 11.0425 29.321C11.0425 29.3679 11.0524 29.4131 11.0722 29.4551H11.9628Z" fill="#EF9067"/>
<path d="M10.4488 29.5595C10.4086 29.3817 10.1857 29.2463 9.9145 29.2463C9.64534 29.2463 9.42036 29.3817 9.38019 29.5595H10.4488Z" fill="#F4EFF0"/>
<path d="M7.89596 28.4113C8.0599 28.4113 8.19281 28.2243 8.19281 27.9937C8.19281 27.7631 8.0599 27.5762 7.89596 27.5762C7.73203 27.5762 7.59912 27.7631 7.59912 27.9937C7.59912 28.2243 7.73203 28.4113 7.89596 28.4113Z" fill="#EF9067"/>
<path d="M8.76816 29.1394C8.38643 29.1394 8.07628 28.8663 8.07628 28.5302V27.7863C8.07628 27.6707 7.96892 27.5762 7.8377 27.5762C7.70648 27.5762 7.59912 27.6707 7.59912 27.7863V28.5302C7.59912 29.0991 8.12201 29.5595 8.76816 29.5595H9.73639V29.1394H9.25128H8.76816Z" fill="#FC9F6F"/>
<path d="M12.6529 29.5595H10.4989C10.4719 29.5595 10.4489 29.5354 10.4489 29.5073C10.4489 29.4792 10.4719 29.4551 10.4989 29.4551H12.6548C12.6818 29.4551 12.7049 29.4792 12.7049 29.5073C12.7049 29.5354 12.6818 29.5595 12.6529 29.5595Z" fill="white"/>
<path d="M12.6548 29.4899H10.5008C10.4815 29.4899 10.4662 29.4765 10.4565 29.4551C10.4527 29.4658 10.4489 29.4765 10.4489 29.4899C10.4489 29.5274 10.4719 29.5595 10.4989 29.5595H12.6548C12.6818 29.5595 12.7049 29.5274 12.7049 29.4899C12.7049 29.4765 12.7029 29.4658 12.6972 29.4551C12.6895 29.4738 12.6741 29.4899 12.6548 29.4899Z" fill="#F4EFF0"/>
<path d="M10.8779 29.5595H10.4948C10.47 29.5595 10.4489 29.5354 10.4489 29.5073C10.4489 29.4792 10.47 29.4551 10.4948 29.4551H10.8779C10.9026 29.4551 10.9238 29.4792 10.9238 29.5073C10.9238 29.5354 10.9044 29.5595 10.8779 29.5595Z" fill="#F4EFF0"/>
<path d="M12.4664 29.4551H12.3486V29.4029C12.3486 29.3754 12.3601 29.3507 12.3759 29.3507H12.4391C12.4535 29.3507 12.4664 29.3727 12.4664 29.4029V29.4551Z" fill="#F4EFF0"/>
<path d="M12.348 29.4551H12.1111V29.4029C12.1111 29.3754 12.1343 29.3507 12.166 29.3507H12.2931C12.322 29.3507 12.348 29.3727 12.348 29.4029V29.4551Z" fill="#F4EFF0"/>
<path d="M12.1102 29.4551H11.9924V29.4029C11.9924 29.3754 12.0039 29.3507 12.0197 29.3507H12.0829C12.0973 29.3507 12.1102 29.3727 12.1102 29.4029V29.4551Z" fill="#F4EFF0"/>
<path d="M11.8727 29.4551H11.7549V29.4029C11.7549 29.3754 11.7664 29.3507 11.7822 29.3507H11.8454C11.8598 29.3507 11.8727 29.3727 11.8727 29.4029V29.4551Z" fill="#F4EFF0"/>
<path d="M11.7544 29.4551H11.5175V29.4029C11.5175 29.3754 11.5406 29.3507 11.5723 29.3507H11.6995C11.7283 29.3507 11.7544 29.3727 11.7544 29.4029V29.4551Z" fill="#F4EFF0"/>
<path d="M11.5165 29.4551H11.3987V29.4029C11.3987 29.3754 11.4102 29.3507 11.426 29.3507H11.4892C11.5036 29.3507 11.5165 29.3727 11.5165 29.4029V29.4551Z" fill="#F4EFF0"/>
<path d="M11.3981 29.4551H11.1613V29.4029C11.1613 29.3754 11.1844 29.3507 11.2161 29.3507H11.3433C11.3721 29.3507 11.3981 29.3727 11.3981 29.4029V29.4551Z" fill="#F4EFF0"/>
<path d="M11.1603 29.4551H11.0425V29.4029C11.0425 29.3754 11.054 29.3507 11.0698 29.3507H11.133C11.1474 29.3507 11.1603 29.3727 11.1603 29.4029V29.4551Z" fill="#F4EFF0"/>
<path d="M10.9228 29.4551H10.8051V29.4029C10.8051 29.3754 10.8165 29.3507 10.8323 29.3507H10.8956C10.9099 29.3507 10.9228 29.3727 10.9228 29.4029V29.4551Z" fill="#F4EFF0"/>
<path d="M10.8045 29.4551H10.5676V29.4029C10.5676 29.3754 10.5907 29.3507 10.6225 29.3507H10.7496C10.7785 29.3507 10.8045 29.3727 10.8045 29.4029V29.4551Z" fill="#F4EFF0"/>
<path d="M10.4963 29.5595H10.8781C10.9027 29.5595 10.9238 29.5113 10.9238 29.4551H10.4489C10.4489 29.5113 10.47 29.5595 10.4963 29.5595Z" fill="#E2E2E2"/>
<path d="M10.6927 30.9165H9.15443L9.14276 30.1858H11.0486C11.177 30.1858 11.28 30.278 11.28 30.3928C11.2781 30.6834 11.0155 30.9165 10.6927 30.9165Z" fill="#352934"/>
<path d="M9.49896 33.5022L10.4325 30.6601C10.4633 30.5648 10.5615 30.499 10.6731 30.499C10.6962 30.499 10.7212 30.5024 10.7443 30.5076C10.8772 30.5423 10.9522 30.6688 10.9137 30.7884L9.98018 33.6305L9.49896 33.5022Z" fill="#EF9067"/>
<path d="M10.2274 33.3173L9.49896 33.111L10.4172 30.1339C10.4768 29.9415 10.6883 29.8305 10.8889 29.8877C11.0896 29.9449 11.2052 30.1478 11.1456 30.3403L10.2274 33.3173Z" fill="#352934"/>
<path d="M14.0975 28.7244H10.9186C10.8561 28.7244 10.8051 28.6775 10.8051 28.62L11.1986 26.5324C11.1986 26.475 11.2497 26.428 11.3122 26.428H14.4911C14.5535 26.428 14.6046 26.475 14.6046 26.5324L14.2111 28.62C14.2111 28.6775 14.1619 28.7244 14.0975 28.7244Z" fill="#CECECE"/>
<path d="M14.3192 28.7244H11.0409C10.9765 28.7244 10.9238 28.6775 10.9238 28.62L11.3297 26.5324C11.3297 26.475 11.3824 26.428 11.4468 26.428H14.7251C14.7895 26.428 14.8421 26.475 14.8421 26.5324L14.4363 28.62C14.4363 28.6775 14.3855 28.7244 14.3192 28.7244Z" fill="#F4EFF0"/>
<path d="M13.2964 29.4408L13.0253 28.2025H12.5422C12.4833 28.2025 12.4381 28.2521 12.4499 28.3035L12.6895 29.3965C12.6993 29.4372 12.664 29.4744 12.6188 29.4744H12.3242C12.2712 29.4744 12.2299 29.5134 12.2299 29.5595H12.7248H13.1844C13.2571 29.5612 13.3101 29.5028 13.2964 29.4408Z" fill="#CECECE"/>
<path d="M13.3414 29.5595H12.8639L12.5868 28.2309C12.583 28.2149 12.5961 28.2025 12.613 28.2025H13.1504L13.4163 29.4762C13.4238 29.5188 13.3882 29.5595 13.3414 29.5595Z" fill="#F4EFF0"/>
<path d="M12.7315 29.5595H12.8227L12.798 29.4551H12.7049L12.7315 29.5595Z" fill="#F4EFF0"/>
<path d="M12.743 29.5595C12.793 29.5595 12.8311 29.5242 12.8211 29.4858L12.8131 29.4551H12.7049L12.743 29.5595Z" fill="#CECECE"/>
<path d="M13.1352 27.6284C13.0304 27.6284 12.945 27.5533 12.945 27.4612C12.945 27.4305 12.9547 27.4032 12.9703 27.3793C12.9431 27.3725 12.914 27.3674 12.883 27.3674C12.7181 27.3674 12.5861 27.4851 12.5861 27.6284C12.5861 27.7716 12.72 27.8893 12.883 27.8893C13.0479 27.8893 13.1798 27.7716 13.1798 27.6284C13.1798 27.6267 13.1798 27.625 13.1798 27.6232C13.1643 27.6267 13.1507 27.6284 13.1352 27.6284Z" fill="#CECECE"/>
<path d="M10.8723 30.5071L9.34772 30.8946C8.93327 30.9999 8.51326 30.716 8.31158 30.2464L10.6744 29.7803C10.8816 29.7286 11.0944 29.8482 11.148 30.0482C11.2035 30.25 11.0796 30.4553 10.8723 30.5071Z" fill="#3B323A"/>
<path d="M12.4674 32.6136L11.7464 32.8998L10.4827 30.3664C10.3945 30.189 10.4846 29.9815 10.6836 29.9028C10.8827 29.8242 11.1155 29.9045 11.2037 30.0819L12.4674 32.6136Z" fill="#3B323A"/>
<path d="M6.95214 29.977H15.2517C15.3525 29.977 15.4358 29.9129 15.4358 29.8354V29.7012C15.4358 29.6236 15.3525 29.5595 15.2517 29.5595H6.95214C6.85135 29.5595 6.76801 29.6236 6.76801 29.7012V29.8354C6.76801 29.9129 6.84941 29.977 6.95214 29.977Z" fill="#F2F2F2"/>
<path d="M13.743 33.4616L12.1434 33.733C12.0814 33.7436 12.0231 33.7068 12.0099 33.6525L11.9987 33.6052C11.9667 33.4686 12.0607 33.3302 12.2148 33.2934L13.3802 33.0185C13.6057 32.9659 13.8332 33.0622 13.8745 33.2391L13.8896 33.3022C13.9065 33.374 13.8407 33.4458 13.743 33.4616Z" fill="#535452"/>
<path d="M13.8008 33.3457L12.0038 33.6346C12 33.6346 11.9962 33.6362 11.9924 33.6362L11.9981 33.6563C12.0113 33.7097 12.0699 33.7431 12.1323 33.7331L13.7403 33.4743C13.8386 33.4592 13.9066 33.3908 13.8896 33.3223L13.8877 33.3173C13.8613 33.3307 13.8329 33.3407 13.8008 33.3457Z" fill="#FFFDFD"/>
<path d="M10.3624 34.3275L8.95793 33.5043C8.9046 33.4725 8.8888 33.4106 8.92435 33.3654L8.95398 33.3253C9.03892 33.2132 9.22065 33.178 9.36288 33.2517L10.4473 33.8005C10.6587 33.9075 10.7496 34.1167 10.6389 34.2606L10.5994 34.3125C10.556 34.371 10.4473 34.3777 10.3624 34.3275Z" fill="#424441"/>
<path d="M10.4825 34.273L8.94439 33.3242C8.94052 33.3225 8.93858 33.319 8.93471 33.3173L8.92311 33.3346C8.89022 33.3811 8.90376 33.445 8.956 33.4777L10.3316 34.3265C10.4148 34.3782 10.5212 34.3713 10.5637 34.3109L10.5676 34.3058C10.5386 34.3006 10.5096 34.2885 10.4825 34.273Z" fill="#CECECE"/>
<path d="M6.49881 29.5595H6.20611C6.05795 29.5595 5.93689 29.441 5.93689 29.2959V28.5157H6.76803V29.2959C6.76984 29.441 6.64878 29.5595 6.49881 29.5595Z" fill="#FF6161"/>
<path d="M6.05561 28.6201C5.85813 28.6201 5.6994 28.7612 5.6994 28.9332C5.6994 29.1052 5.85997 29.2464 6.05561 29.2464C6.25125 29.2464 6.41182 29.1052 6.41182 28.9332C6.41182 28.7612 6.25125 28.6201 6.05561 28.6201ZM6.05561 29.1782C5.90242 29.1782 5.77692 29.0679 5.77692 28.9332C5.77692 28.7985 5.90242 28.6882 6.05561 28.6882C6.2088 28.6882 6.33431 28.7985 6.33431 28.9332C6.33246 29.0695 6.2088 29.1782 6.05561 29.1782Z" fill="#F4A36C"/>
<path d="M6.49881 29.5595H6.20611C6.05795 29.5595 5.93689 29.441 5.93689 29.2959V28.5157H6.76803V29.2959C6.76984 29.441 6.64878 29.5595 6.49881 29.5595Z" fill="#F7BC8B"/>
<path d="M6.33079 29.3118C6.24767 29.3118 6.18082 29.2463 6.18082 29.165V28.5157H5.93689V29.2959C5.93689 29.441 6.05795 29.5595 6.20611 29.5595H6.49883C6.64157 29.5595 6.75901 29.4498 6.76805 29.3118H6.33079Z" fill="#EFA573"/>
<path d="M10.063 29.5595C10.0828 29.5091 10.0927 29.4548 10.0927 29.3986C10.0927 29.1407 9.88091 28.9332 9.61771 28.9332C9.35451 28.9332 9.14276 29.1407 9.14276 29.3986C9.14276 29.4548 9.15266 29.5091 9.17245 29.5595H10.063Z" fill="#FC9F6F"/>
<path opacity="0.77" d="M6.29276 28.4113C6.35818 28.4113 6.41121 28.3646 6.41121 28.3069C6.41121 28.2492 6.35818 28.2025 6.29276 28.2025C6.22734 28.2025 6.17432 28.2492 6.17432 28.3069C6.17432 28.3646 6.22734 28.4113 6.29276 28.4113Z" fill="#F2F2F2"/>
<path opacity="0.77" d="M6.5305 28.0981C6.66165 28.0981 6.76798 28.028 6.76798 27.9415C6.76798 27.8551 6.66165 27.785 6.5305 27.785C6.39935 27.785 6.29303 27.8551 6.29303 27.9415C6.29303 28.028 6.39935 28.0981 6.5305 28.0981Z" fill="#F2F2F2"/>
<path d="M4.69014 26.9499C4.98523 26.9499 5.22446 26.7629 5.22446 26.5323C5.22446 26.3017 4.98523 26.1148 4.69014 26.1148C4.39505 26.1148 4.15582 26.3017 4.15582 26.5323C4.15582 26.7629 4.39505 26.9499 4.69014 26.9499Z" fill="#65706C"/>
<path d="M43.5449 10.1253L45.4432 15.9676H51.5862L46.6164 19.5784L48.5147 25.4207L43.5449 21.81L38.5751 25.4207L40.4734 19.5784L35.5036 15.9676H41.6466L43.5449 10.1253Z" fill="#44AFAF"/>
<path d="M63.875 24.0107C63.875 24.5612 63.7699 25.0776 63.5596 25.5601C63.3493 26.0425 63.0617 26.4661 62.6968 26.8311C62.3381 27.1898 61.9175 27.4743 61.4351 27.6846C60.9526 27.8949 60.4362 28 59.8857 28H53.2339V14.6963H59.8857C60.4362 14.6963 60.9526 14.8014 61.4351 15.0117C61.9175 15.222 62.3381 15.5096 62.6968 15.8745C63.0617 16.2332 63.3493 16.6538 63.5596 17.1362C63.7699 17.6187 63.875 18.1351 63.875 18.6855C63.875 18.9329 63.841 19.1865 63.7729 19.4463C63.7049 19.7061 63.609 19.9565 63.4854 20.1978C63.3617 20.439 63.2132 20.6585 63.04 20.8564C62.8669 21.0544 62.6751 21.2183 62.4648 21.3481C62.6813 21.4657 62.8761 21.6265 63.0493 21.8306C63.2225 22.0285 63.3709 22.248 63.4946 22.4893C63.6183 22.7305 63.7111 22.984 63.7729 23.25C63.841 23.5098 63.875 23.7633 63.875 24.0107ZM55.8965 25.3374H59.8857C60.0713 25.3374 60.2445 25.3034 60.4053 25.2354C60.5661 25.1673 60.7052 25.0745 60.8228 24.957C60.9465 24.8333 61.0423 24.6911 61.1104 24.5303C61.1784 24.3695 61.2124 24.1963 61.2124 24.0107C61.2124 23.8252 61.1784 23.652 61.1104 23.4912C61.0423 23.3304 60.9465 23.1912 60.8228 23.0737C60.7052 22.95 60.5661 22.8542 60.4053 22.7861C60.2445 22.7181 60.0713 22.6841 59.8857 22.6841H55.8965V25.3374ZM55.8965 20.0215H59.8857C60.0713 20.0215 60.2445 19.9875 60.4053 19.9194C60.5661 19.8514 60.7052 19.7586 60.8228 19.6411C60.9465 19.5174 61.0423 19.3752 61.1104 19.2144C61.1784 19.0474 61.2124 18.8711 61.2124 18.6855C61.2124 18.5 61.1784 18.3268 61.1104 18.166C61.0423 18.0052 60.9465 17.866 60.8228 17.7485C60.7052 17.6248 60.5661 17.529 60.4053 17.4609C60.2445 17.3929 60.0713 17.3589 59.8857 17.3589H55.8965V20.0215ZM69.5713 25.5693C69.6702 25.6003 69.7692 25.6219 69.8682 25.6343C69.9671 25.6405 70.0661 25.6436 70.165 25.6436C70.4124 25.6436 70.6506 25.6095 70.8794 25.5415C71.1082 25.4735 71.3216 25.3776 71.5195 25.2539C71.7236 25.124 71.903 24.9694 72.0576 24.79C72.2184 24.6045 72.3483 24.4004 72.4473 24.1777L74.3027 26.0425C74.0677 26.3765 73.7956 26.6764 73.4863 26.9424C73.1833 27.2083 72.8524 27.4341 72.4937 27.6196C72.1411 27.8052 71.7669 27.9443 71.3711 28.0371C70.9814 28.1361 70.5794 28.1855 70.165 28.1855C69.4661 28.1855 68.8075 28.0557 68.189 27.7959C67.5767 27.5361 67.0386 27.1743 66.5747 26.7104C66.117 26.2466 65.7552 25.6961 65.4893 25.0591C65.2233 24.4159 65.0903 23.7108 65.0903 22.9438C65.0903 22.1584 65.2233 21.4409 65.4893 20.7915C65.7552 20.1421 66.117 19.5885 66.5747 19.1309C67.0386 18.6732 67.5767 18.3175 68.189 18.064C68.8075 17.8104 69.4661 17.6836 70.165 17.6836C70.5794 17.6836 70.9845 17.7331 71.3804 17.832C71.7762 17.931 72.1504 18.0732 72.5029 18.2588C72.8617 18.4443 73.1956 18.6732 73.5049 18.9453C73.8141 19.2113 74.0863 19.5112 74.3213 19.8452L69.5713 25.5693ZM70.8701 20.3462C70.7526 20.3029 70.6351 20.2751 70.5176 20.2627C70.4062 20.2503 70.2887 20.2441 70.165 20.2441C69.8187 20.2441 69.4909 20.3091 69.1816 20.439C68.8786 20.5627 68.6126 20.742 68.3838 20.9771C68.1611 21.2121 67.9849 21.4966 67.855 21.8306C67.7251 22.1584 67.6602 22.5295 67.6602 22.9438C67.6602 23.0366 67.6632 23.1418 67.6694 23.2593C67.6818 23.3768 67.6973 23.4974 67.7158 23.6211C67.7406 23.7386 67.7684 23.853 67.7993 23.9644C67.8302 24.0757 67.8704 24.1746 67.9199 24.2612L70.8701 20.3462ZM79.4795 25.5693C79.5785 25.6003 79.6774 25.6219 79.7764 25.6343C79.8753 25.6405 79.9743 25.6436 80.0732 25.6436C80.3206 25.6436 80.5588 25.6095 80.7876 25.5415C81.0164 25.4735 81.2298 25.3776 81.4277 25.2539C81.6318 25.124 81.8112 24.9694 81.9658 24.79C82.1266 24.6045 82.2565 24.4004 82.3555 24.1777L84.2109 26.0425C83.9759 26.3765 83.7038 26.6764 83.3945 26.9424C83.0915 27.2083 82.7606 27.4341 82.4019 27.6196C82.0493 27.8052 81.6751 27.9443 81.2793 28.0371C80.8896 28.1361 80.4876 28.1855 80.0732 28.1855C79.3743 28.1855 78.7157 28.0557 78.0972 27.7959C77.4849 27.5361 76.9468 27.1743 76.4829 26.7104C76.0252 26.2466 75.6634 25.6961 75.3975 25.0591C75.1315 24.4159 74.9985 23.7108 74.9985 22.9438C74.9985 22.1584 75.1315 21.4409 75.3975 20.7915C75.6634 20.1421 76.0252 19.5885 76.4829 19.1309C76.9468 18.6732 77.4849 18.3175 78.0972 18.064C78.7157 17.8104 79.3743 17.6836 80.0732 17.6836C80.4876 17.6836 80.8927 17.7331 81.2886 17.832C81.6844 17.931 82.0586 18.0732 82.4111 18.2588C82.7699 18.4443 83.1038 18.6732 83.4131 18.9453C83.7223 19.2113 83.9945 19.5112 84.2295 19.8452L79.4795 25.5693ZM80.7783 20.3462C80.6608 20.3029 80.5433 20.2751 80.4258 20.2627C80.3145 20.2503 80.1969 20.2441 80.0732 20.2441C79.7269 20.2441 79.3991 20.3091 79.0898 20.439C78.7868 20.5627 78.5208 20.742 78.292 20.9771C78.0693 21.2121 77.8931 21.4966 77.7632 21.8306C77.6333 22.1584 77.5684 22.5295 77.5684 22.9438C77.5684 23.0366 77.5715 23.1418 77.5776 23.2593C77.59 23.3768 77.6055 23.4974 77.624 23.6211C77.6488 23.7386 77.6766 23.853 77.7075 23.9644C77.7384 24.0757 77.7786 24.1746 77.8281 24.2612L80.7783 20.3462ZM87.9033 31.7852V29.2339L89.3135 29.2524C89.5609 29.2524 89.799 29.2122 90.0278 29.1318C90.2567 29.0514 90.467 28.9401 90.6587 28.7979C90.8566 28.6556 91.0298 28.4855 91.1782 28.2876C91.3267 28.0959 91.4473 27.8856 91.54 27.6567C91.2617 27.7743 90.9772 27.8918 90.6865 28.0093C90.402 28.1268 90.1144 28.1855 89.8237 28.1855C89.2114 28.1855 88.6362 28.0773 88.0981 27.8608C87.5601 27.6444 87.0869 27.3382 86.6787 26.9424C86.2767 26.5404 85.9582 26.0549 85.7231 25.4858C85.4943 24.9106 85.3799 24.2674 85.3799 23.5562V18.064H87.9033V23.5562C87.9033 23.9087 87.9528 24.2179 88.0518 24.4839C88.1569 24.7437 88.2961 24.9632 88.4692 25.1426C88.6424 25.3158 88.8434 25.4456 89.0723 25.5322C89.3073 25.6188 89.5578 25.6621 89.8237 25.6621C90.0835 25.6621 90.3278 25.6034 90.5566 25.4858C90.7917 25.3621 90.9958 25.2013 91.1689 25.0034C91.3421 24.8055 91.4782 24.5828 91.5771 24.3354C91.6761 24.0819 91.7256 23.8221 91.7256 23.5562V18.064H94.2769V26.7476C94.2707 27.4465 94.1346 28.1021 93.8687 28.7144C93.6027 29.3267 93.2378 29.8617 92.7739 30.3193C92.3162 30.777 91.7812 31.1388 91.1689 31.4048C90.5566 31.6707 89.901 31.8037 89.2021 31.8037L87.9033 31.7852ZM105.818 22.9438C105.818 23.686 105.685 24.3787 105.419 25.022C105.153 25.659 104.791 26.2126 104.333 26.6826C103.876 27.1465 103.338 27.5145 102.719 27.7866C102.107 28.0526 101.448 28.1855 100.743 28.1855C100.044 28.1855 99.3856 28.0526 98.7671 27.7866C98.1548 27.5145 97.6167 27.1465 97.1528 26.6826C96.6951 26.2126 96.3333 25.659 96.0674 25.022C95.8014 24.3787 95.6685 23.686 95.6685 22.9438C95.6685 22.1893 95.8014 21.4904 96.0674 20.8472C96.3333 20.2039 96.6951 19.6504 97.1528 19.1865C97.6167 18.7165 98.1548 18.3485 98.7671 18.0825C99.3856 17.8166 100.044 17.6836 100.743 17.6836C101.448 17.6836 102.107 17.8104 102.719 18.064C103.338 18.3114 103.876 18.667 104.333 19.1309C104.791 19.5885 105.153 20.1421 105.419 20.7915C105.685 21.4347 105.818 22.1522 105.818 22.9438ZM103.267 22.9438C103.267 22.5356 103.199 22.1676 103.062 21.8398C102.933 21.5059 102.753 21.2214 102.524 20.9863C102.296 20.7451 102.027 20.5627 101.717 20.439C101.414 20.3091 101.09 20.2441 100.743 20.2441C100.397 20.2441 100.069 20.3091 99.7598 20.439C99.4567 20.5627 99.1908 20.7451 98.9619 20.9863C98.7393 21.2214 98.563 21.5059 98.4331 21.8398C98.3032 22.1676 98.2383 22.5356 98.2383 22.9438C98.2383 23.3273 98.3032 23.6829 98.4331 24.0107C98.563 24.3385 98.7393 24.623 98.9619 24.8643C99.1908 25.1055 99.4567 25.2972 99.7598 25.4395C100.069 25.5755 100.397 25.6436 100.743 25.6436C101.09 25.6436 101.414 25.5786 101.717 25.4487C102.027 25.3188 102.296 25.1364 102.524 24.9014C102.753 24.6663 102.933 24.3818 103.062 24.0479C103.199 23.7139 103.267 23.3459 103.267 22.9438ZM109.751 28H107.219V18.064H107.831L108.666 19.0288C109.074 18.6577 109.535 18.3732 110.048 18.1753C110.568 17.9712 111.109 17.8691 111.672 17.8691C112.278 17.8691 112.85 17.9867 113.388 18.2217C113.926 18.4505 114.396 18.769 114.798 19.1772C115.2 19.5793 115.516 20.0524 115.745 20.5967C115.98 21.1348 116.097 21.71 116.097 22.3223V28H113.564V22.3223C113.564 22.0625 113.515 21.8182 113.416 21.5894C113.317 21.3543 113.181 21.1502 113.008 20.9771C112.835 20.8039 112.634 20.6678 112.405 20.5688C112.176 20.4699 111.932 20.4204 111.672 20.4204C111.406 20.4204 111.155 20.4699 110.92 20.5688C110.685 20.6678 110.481 20.8039 110.308 20.9771C110.135 21.1502 109.999 21.3543 109.9 21.5894C109.801 21.8182 109.751 22.0625 109.751 22.3223V28ZM127.508 28H126.896L125.913 26.6362C125.671 26.8527 125.415 27.0568 125.143 27.2485C124.877 27.4341 124.595 27.598 124.298 27.7402C124.001 27.8763 123.695 27.9845 123.38 28.0649C123.071 28.1453 122.755 28.1855 122.434 28.1855C121.735 28.1855 121.076 28.0557 120.458 27.7959C119.845 27.5299 119.307 27.165 118.843 26.7012C118.386 26.2311 118.024 25.6776 117.758 25.0405C117.492 24.3973 117.359 23.6984 117.359 22.9438C117.359 22.1955 117.492 21.4997 117.758 20.8564C118.024 20.2132 118.386 19.6566 118.843 19.1865C119.307 18.7165 119.845 18.3485 120.458 18.0825C121.076 17.8166 121.735 17.6836 122.434 17.6836C122.656 17.6836 122.885 17.7021 123.12 17.7393C123.361 17.7764 123.593 17.8382 123.816 17.9248C124.045 18.0052 124.258 18.1134 124.456 18.2495C124.654 18.3856 124.821 18.5526 124.957 18.7505V14.1118H127.508V28ZM124.957 22.9438C124.957 22.5975 124.889 22.2635 124.753 21.9419C124.623 21.6141 124.444 21.3265 124.215 21.0791C123.986 20.8255 123.717 20.6245 123.408 20.4761C123.105 20.3215 122.78 20.2441 122.434 20.2441C122.087 20.2441 121.759 20.306 121.45 20.4297C121.147 20.5534 120.881 20.7327 120.652 20.9678C120.43 21.1966 120.253 21.478 120.124 21.812C119.994 22.146 119.929 22.5233 119.929 22.9438C119.929 23.3088 119.994 23.6551 120.124 23.9829C120.253 24.3107 120.43 24.5983 120.652 24.8457C120.881 25.0931 121.147 25.2879 121.45 25.4302C121.759 25.5724 122.087 25.6436 122.434 25.6436C122.78 25.6436 123.105 25.5693 123.408 25.4209C123.717 25.2663 123.986 25.0653 124.215 24.8179C124.444 24.5643 124.623 24.2767 124.753 23.9551C124.889 23.6273 124.957 23.2902 124.957 22.9438ZM132.564 27.0537C132.564 27.2764 132.524 27.4867 132.444 27.6846C132.363 27.8763 132.252 28.0433 132.11 28.1855C131.968 28.3278 131.801 28.4391 131.609 28.5195C131.417 28.6061 131.21 28.6494 130.987 28.6494C130.771 28.6494 130.564 28.6061 130.366 28.5195C130.174 28.4391 130.004 28.3278 129.855 28.1855C129.713 28.0433 129.599 27.8763 129.512 27.6846C129.432 27.4867 129.392 27.2764 129.392 27.0537C129.392 26.8372 129.432 26.6331 129.512 26.4414C129.599 26.2497 129.713 26.0827 129.855 25.9404C130.004 25.7982 130.174 25.6868 130.366 25.6064C130.564 25.5199 130.771 25.4766 130.987 25.4766C131.21 25.4766 131.417 25.5199 131.609 25.6064C131.801 25.6868 131.968 25.7982 132.11 25.9404C132.252 26.0827 132.363 26.2497 132.444 26.4414C132.524 26.6331 132.564 26.8372 132.564 27.0537ZM137.389 17.3589V22.6841H140.051C140.416 22.6841 140.759 22.616 141.081 22.48C141.403 22.3377 141.684 22.146 141.925 21.9048C142.167 21.6636 142.355 21.3822 142.491 21.0605C142.633 20.7327 142.705 20.3864 142.705 20.0215C142.705 19.6566 142.633 19.3133 142.491 18.9917C142.355 18.6639 142.167 18.3794 141.925 18.1382C141.684 17.897 141.403 17.7083 141.081 17.5723C140.759 17.43 140.416 17.3589 140.051 17.3589H137.389ZM137.389 28H134.726V14.6963H140.051C140.54 14.6963 141.01 14.7612 141.461 14.8911C141.913 15.0148 142.333 15.1942 142.723 15.4292C143.119 15.658 143.478 15.9364 143.799 16.2642C144.127 16.5858 144.405 16.9445 144.634 17.3403C144.869 17.7362 145.049 18.1598 145.172 18.6113C145.302 19.0628 145.367 19.5329 145.367 20.0215C145.367 20.7513 145.228 21.4409 144.95 22.0903C144.671 22.7336 144.291 23.2964 143.809 23.7788C143.326 24.2612 142.76 24.6416 142.111 24.9199C141.468 25.1982 140.781 25.3374 140.051 25.3374H137.389V28ZM160.137 28H157.483V18.5C157.483 18.3145 157.446 18.1413 157.372 17.9805C157.304 17.8197 157.208 17.6805 157.084 17.563C156.967 17.4393 156.828 17.3434 156.667 17.2754C156.506 17.2074 156.333 17.1733 156.147 17.1733C155.962 17.1733 155.789 17.2074 155.628 17.2754C155.467 17.3434 155.325 17.4393 155.201 17.563C155.084 17.6805 154.991 17.8197 154.923 17.9805C154.855 18.1413 154.821 18.3145 154.821 18.5V28H152.158V18.5C152.158 18.3145 152.124 18.1413 152.056 17.9805C151.988 17.8197 151.892 17.6805 151.769 17.563C151.651 17.4393 151.512 17.3434 151.351 17.2754C151.19 17.2074 151.017 17.1733 150.832 17.1733C150.646 17.1733 150.473 17.2074 150.312 17.2754C150.151 17.3434 150.009 17.4393 149.885 17.563C149.768 17.6805 149.675 17.8197 149.607 17.9805C149.539 18.1413 149.505 18.3145 149.505 18.5V28H146.842V18.5C146.842 17.9495 146.944 17.4331 147.148 16.9507C147.359 16.4621 147.643 16.0384 148.002 15.6797C148.367 15.3148 148.791 15.0303 149.273 14.8262C149.762 14.6159 150.281 14.5107 150.832 14.5107C151.326 14.5107 151.803 14.6004 152.26 14.7798C152.718 14.953 153.129 15.2065 153.494 15.5405C153.859 15.2065 154.267 14.953 154.719 14.7798C155.176 14.6004 155.653 14.5107 156.147 14.5107C156.698 14.5107 157.214 14.6159 157.697 14.8262C158.185 15.0303 158.609 15.3148 158.968 15.6797C159.333 16.0384 159.617 16.4621 159.821 16.9507C160.032 17.4331 160.137 17.9495 160.137 18.5V28Z" fill="black"/>
</svg>
